<?xml version="1.0" standalone="no"?>
<!DOCTYPE svg PUBLIC "-//W3C//DTD SVG 20010904//EN"
 "http://www.w3.org/TR/2001/REC-SVG-20010904/DTD/svg10.dtd">
<svg version="1.0" xmlns="http://www.w3.org/2000/svg"
 width="204.000000pt" height="247.000000pt" viewBox="0 0 204.000000 247.000000"
 preserveAspectRatio="xMidYMid meet">
<metadata>
Created by potrace 1.10, written by Peter Selinger 2001-2011
</metadata>
<g transform="translate(0.000000,247.000000) scale(0.100000,-0.100000)"
fill="#000000" stroke="none">
<path d="M967 2459 c-69 -17 -122 -51 -211 -141 l-90 -89 31 -19 c18 -11 35
-32 42 -52 12 -37 18 -185 8 -195 -10 -10 -8 -78 3 -107 5 -15 20 -31 34 -37
14 -7 26 -23 29 -38 3 -15 24 -50 46 -78 46 -57 87 -73 188 -73 94 0 125 14
177 76 25 31 46 67 46 79 0 17 7 25 22 27 44 6 75 148 33 148 -18 0 -20 16 -4
26 6 3 20 25 30 48 27 60 25 157 -5 221 -25 55 -86 115 -116 115 -11 0 -34 13
-52 29 -65 57 -139 78 -211 60z m101 -36 c26 -15 66 -42 90 -60 24 -18 50 -33
57 -33 24 0 77 -53 96 -95 27 -59 24 -135 -7 -205 -21 -46 -24 -62 -15 -78 19
-36 12 -69 -24 -112 -19 -23 -35 -47 -35 -52 0 -24 -72 -97 -106 -108 -49 -16
-166 -8 -199 14 -15 10 -39 38 -55 64 -15 26 -41 62 -57 81 -28 34 -28 35 -28
182 0 139 -1 149 -24 179 -21 29 -22 35 -10 57 21 39 114 114 193 154 39 20
72 37 74 38 2 1 24 -11 50 -26z"/>
<path d="M373 2148 c-5 -7 -13 -21 -16 -30 -4 -10 -13 -18 -21 -18 -23 0 -87
-61 -102 -97 -8 -18 -14 -66 -14 -107 0 -56 -4 -75 -15 -80 -32 -12 -16 -62
51 -157 l66 -94 -40 -35 c-22 -20 -72 -49 -111 -64 -38 -15 -82 -37 -97 -48
-34 -27 -63 -92 -64 -140 l0 -38 149 0 148 0 11 68 c18 107 42 169 84 217 38
43 125 95 160 95 21 0 72 65 101 129 19 44 19 45 0 60 -15 13 -18 26 -15 64
10 125 -26 189 -140 245 -77 38 -121 48 -135 30z m94 -53 c99 -42 143 -101
143 -194 0 -36 5 -79 12 -97 10 -29 8 -37 -22 -83 -27 -44 -43 -57 -104 -85
-119 -55 -181 -136 -208 -272 -6 -32 -15 -65 -21 -71 -6 -9 -42 -13 -114 -13
l-106 0 7 32 c9 45 49 83 115 109 104 40 181 105 181 151 0 8 -24 50 -53 94
-67 99 -70 109 -52 144 9 17 15 56 15 92 0 81 19 116 90 167 63 45 68 46 117
26z"/>
<path d="M1593 2145 c-59 -18 -126 -59 -157 -95 -34 -42 -49 -94 -44 -166 3
-48 0 -62 -15 -74 -18 -15 -18 -18 -4 -53 32 -75 74 -124 113 -132 59 -11 137
-49 173 -86 47 -46 77 -118 93 -216 l12 -83 133 0 133 0 0 28 c0 97 -42 149
-159 197 -54 23 -102 50 -121 70 l-32 33 39 54 c76 105 93 134 93 161 0 15 -7
30 -15 33 -11 5 -15 24 -15 80 0 41 -6 89 -14 107 -15 36 -79 97 -102 97 -8 0
-20 14 -25 30 -12 33 -23 35 -86 15z m57 -50 c6 -8 31 -25 55 -39 56 -33 75
-75 75 -164 0 -39 5 -74 10 -77 22 -14 8 -63 -42 -139 -28 -45 -55 -85 -59
-89 -3 -5 -28 6 -55 22 -26 17 -51 31 -56 31 -4 0 -32 9 -63 21 -46 17 -60 28
-82 66 -23 40 -25 49 -15 77 7 18 12 60 12 95 0 35 6 74 15 90 18 36 69 79
120 102 49 23 69 24 85 4z m294 -713 c23 -21 49 -79 41 -92 -8 -13 -172 -13
-180 0 -5 9 -45 163 -45 175 0 7 166 -68 184 -83z"/>
<path d="M810 1589 c-19 -10 -80 -28 -135 -40 -200 -43 -222 -66 -269 -281
l-6 -28 636 0 636 0 -7 33 c-30 149 -56 201 -118 230 -18 9 -85 30 -149 46
-64 16 -131 37 -148 46 -18 9 -33 15 -33 13 -1 -2 -20 -57 -42 -123 -22 -66
-42 -123 -45 -128 -3 -4 -16 24 -29 63 -20 64 -21 72 -7 92 33 47 13 75 -53
76 -40 1 -71 -13 -71 -32 0 -7 9 -24 19 -38 20 -24 20 -25 -5 -94 -14 -38 -27
-70 -28 -72 -2 -1 -25 56 -51 128 -26 71 -51 129 -54 129 -3 -1 -22 -10 -41
-20z m60 -131 c33 -83 63 -128 85 -128 19 0 52 42 65 83 6 20 15 37 20 37 5 0
16 -20 25 -45 44 -115 89 -95 146 64 17 46 32 75 41 75 43 -5 270 -73 293 -88
30 -20 62 -84 67 -136 l3 -35 -577 -3 -578 -2 0 38 c0 50 38 122 75 144 30 17
284 87 296 81 4 -1 21 -40 39 -85z"/>
<path d="M10 1024 c0 -169 30 -204 172 -204 l74 0 13 -47 c6 -27 24 -74 38
-106 l26 -58 -45 -47 c-57 -59 -68 -80 -68 -132 0 -39 6 -48 73 -117 125 -129
166 -135 268 -36 l46 44 73 -36 c41 -19 89 -38 107 -41 33 -6 33 -7 33 -63 0
-113 27 -158 102 -171 l43 -8 -49 42 c-47 42 -48 43 -53 112 -6 86 -19 106
-80 129 -26 10 -75 31 -107 46 -67 32 -71 31 -146 -32 -78 -65 -105 -63 -193
20 -90 84 -97 125 -34 201 75 93 72 77 33 179 -20 50 -36 95 -36 101 0 6 -11
22 -25 35 -21 22 -33 25 -90 25 -69 0 -118 17 -129 45 -3 9 -6 55 -6 101 l0
84 208 -2 207 -3 7 -94 c14 -179 54 -270 172 -387 69 -68 93 -86 161 -114 158
-65 294 -62 442 9 192 94 298 258 312 485 l6 101 210 0 210 0 3 -86 c3 -86 3
-87 -28 -113 -27 -23 -41 -26 -100 -26 -91 0 -108 -16 -154 -141 -20 -53 -36
-101 -36 -107 0 -5 25 -40 55 -77 75 -91 72 -127 -17 -211 -93 -88 -114 -92
-188 -31 -96 77 -77 75 -197 22 -138 -60 -143 -65 -143 -131 0 -71 -13 -102
-63 -146 l-42 -36 42 8 c76 13 103 57 103 165 0 40 4 65 11 65 18 0 143 52
170 71 l26 18 44 -45 c71 -73 120 -90 177 -60 15 8 60 48 100 89 66 69 72 78
72 116 0 53 -17 85 -73 140 l-45 43 28 62 c15 33 33 80 39 104 l12 42 75 0
c145 0 174 35 174 204 l0 106 -257 0 -258 0 3 -94 c5 -115 -9 -186 -53 -274
-153 -305 -559 -370 -800 -128 -111 110 -164 260 -152 423 l5 73 -254 0 -254
0 0 -106z"/>
<path d="M674 1085 c-30 -201 121 -390 322 -403 221 -14 397 173 369 394 l-6
54 -339 0 -339 0 -7 -45z m646 -10 c18 -21 7 -111 -20 -172 -27 -61 -81 -117
-145 -151 -43 -23 -62 -27 -135 -27 -68 0 -94 5 -131 23 -97 48 -167 149 -176
254 -9 92 -24 88 307 88 245 0 289 -2 300 -15z"/>
</g>
</svg>
